PathFileType	4	(X/Y/Z)	C:\Users\86182\Documents\cortex\Trimmed_M3_H1.trc
DataRate	CameraRate	NumFrames	NumMarkers	Units	OrigDataRate	OrigDataStartFrame	OrigNumFrames
100.00	100.00	       101	2	mm	100.00	1	       901
Frame#	Time	gripper			box			
		X1	Y1	Z1	X2	Y2	Z2	

1	0.000	268.26059	172.61172	192.56447	269.40601	168.85629	56.87838	
2	0.010	268.26114	172.61136	192.56596	269.40677	168.85588	56.87894	
3	0.020	268.26166	172.61147	192.56743	269.40756	168.85550	56.87963	
4	0.030	268.26193	172.61160	192.56819	269.40814	168.85522	56.88020	
5	0.040	268.26187	172.61160	192.56795	269.40836	168.85510	56.88053	
6	0.050	268.26151	172.61140	192.56676	269.40833	168.85506	56.88071	
7	0.060	268.26096	172.61072	192.56471	269.40829	168.85503	56.88093	
8	0.070	268.26035	172.60910	192.56181	269.40842	168.85492	56.88134	
9	0.080	268.25970	172.60638	192.55832	269.40881	168.85471	56.88200	
10	0.090	268.25919	172.60303	192.55501	269.40942	168.85442	56.88285	
11	0.100	268.25891	172.59987	192.55270	269.40997	168.85414	56.88358	
12	0.110	268.25888	172.59763	192.55177	269.41025	168.85400	56.88392	
13	0.120	268.25912	172.59666	192.55219	269.41019	168.85399	56.88386	
14	0.130	268.25955	172.59714	192.55379	269.41003	168.85406	56.88368	
15	0.140	268.26013	172.59894	192.55644	269.40994	168.85419	56.88361	
16	0.150	268.26086	172.60179	192.55962	269.40994	168.85435	56.88371	
17	0.160	268.26166	172.60530	192.56271	269.40988	168.85469	56.88384	
18	0.170	268.26245	172.60919	192.56544	269.40964	168.85527	56.88388	
19	0.180	268.26309	172.61317	192.56781	269.40912	168.85612	56.88371	
20	0.190	268.26349	172.61678	192.56989	269.40833	168.85721	56.88332	
21	0.200	268.26364	172.61957	192.57173	269.40750	168.85832	56.88288	
22	0.210	268.26370	172.62108	192.57324	269.40686	168.85916	56.88249	
23	0.220	268.26373	172.62112	192.57413	269.40649	168.85944	56.88216	
24	0.230	268.26385	172.61995	192.57410	269.40643	168.85912	56.88185	
25	0.240	268.26398	172.61809	192.57301	269.40659	168.85847	56.88158	
26	0.250	268.26407	172.61607	192.57114	269.40680	168.85782	56.88144	
27	0.260	268.26407	172.61407	192.56886	269.40704	168.85735	56.88145	
28	0.270	268.26398	172.61203	192.56662	269.40723	168.85713	56.88158	
29	0.280	268.26376	172.61006	192.56494	269.40732	168.85715	56.88170	
30	0.290	268.26334	172.60872	192.56433	269.40723	168.85728	56.88169	
31	0.300	268.26279	172.60875	192.56506	269.40701	168.85744	56.88149	
32	0.310	268.26221	172.61047	192.56677	269.40671	168.85753	56.88107	
33	0.320	268.26172	172.61346	192.56850	269.40631	168.85751	56.88049	
34	0.330	268.26135	172.61684	192.56947	269.40594	168.85736	56.87983	
35	0.340	268.26120	172.61977	192.56966	269.40558	168.85719	56.87914	
36	0.350	268.26120	172.62184	192.56947	269.40521	168.85709	56.87846	
37	0.360	268.26141	172.62300	192.56940	269.40488	168.85710	56.87791	
38	0.370	268.26178	172.62350	192.56979	269.40463	168.85727	56.87759	
39	0.380	268.26224	172.62373	192.57089	269.40454	168.85751	56.87753	
40	0.390	268.26260	172.62410	192.57262	269.40463	168.85777	56.87772	
41	0.400	268.26282	172.62471	192.57454	269.40491	168.85794	56.87807	
42	0.410	268.26276	172.62534	192.57614	269.40527	168.85793	56.87850	
43	0.420	268.26242	172.62573	192.57721	269.40567	168.85771	56.87892	
44	0.430	268.26199	172.62567	192.57776	269.40604	168.85733	56.87923	
45	0.440	268.26169	172.62518	192.57803	269.40625	168.85689	56.87937	
46	0.450	268.26172	172.62456	192.57837	269.40631	168.85646	56.87934	
47	0.460	268.26208	172.62401	192.57874	269.40631	168.85612	56.87925	
48	0.470	268.26270	172.62329	192.57870	269.40634	168.85588	56.87929	
49	0.480	268.26337	172.62210	192.57779	269.40649	168.85576	56.87954	
50	0.490	268.26398	172.62039	192.57590	269.40674	168.85577	56.88007	
51	0.500	268.26440	172.61847	192.57343	269.40717	168.85594	56.88091	
52	0.510	268.26462	172.61682	192.57104	269.40771	168.85626	56.88203	
53	0.520	268.26468	172.61598	192.56944	269.40833	168.85678	56.88320	
54	0.530	268.26471	172.61626	192.56895	269.40872	168.85748	56.88408	
55	0.540	268.26474	172.61743	192.56934	269.40881	168.85825	56.88430	
56	0.550	268.26480	172.61893	192.57008	269.40866	168.85880	56.88370	
57	0.560	268.26471	172.62012	192.57057	269.40842	168.85896	56.88235	
58	0.570	268.26434	172.62067	192.57036	269.40817	168.85884	56.88058	
59	0.580	268.26373	172.62056	192.56940	269.40802	168.85872	56.87883	
60	0.590	268.26288	172.61992	192.56802	269.40787	168.85873	56.87744	
61	0.600	268.26196	172.61902	192.56664	269.40765	168.85896	56.87665	
62	0.610	268.26117	172.61821	192.56552	269.40735	168.85936	56.87652	
63	0.620	268.26065	172.61771	192.56485	269.40707	168.85985	56.87699	
64	0.630	268.26053	172.61771	192.56458	269.40692	168.86028	56.87782	
65	0.640	268.26089	172.61845	192.56496	269.40707	168.86049	56.87875	
66	0.650	268.26178	172.62032	192.56638	269.40747	168.86041	56.87960	
67	0.660	268.26303	172.62328	192.56889	269.40805	168.85997	56.88022	
68	0.670	268.26437	172.62682	192.57195	269.40860	168.85921	56.88048	
69	0.680	268.26547	172.63017	192.57471	269.40897	168.85834	56.88038	
70	0.690	268.26614	172.63271	192.57657	269.40912	168.85762	56.88007	
71	0.700	268.26630	172.63402	192.57739	269.40897	168.85721	56.87973	
72	0.710	268.26599	172.63387	192.57722	269.40845	168.85715	56.87945	
73	0.720	268.26535	172.63239	192.57616	269.40771	168.85735	56.87918	
74	0.730	268.26462	172.62994	192.57436	269.40701	168.85770	56.87889	
75	0.740	268.26404	172.62721	192.57230	269.40652	168.85811	56.87867	
76	0.750	268.26379	172.62505	192.57062	269.40643	168.85855	56.87865	
77	0.760	268.26385	172.62402	192.56970	269.40671	168.85896	56.87893	
78	0.770	268.26410	172.62425	192.56952	269.40726	168.85919	56.87946	
79	0.780	268.26428	172.62544	192.57002	269.40787	168.85905	56.88011	
80	0.790	268.26431	172.62701	192.57097	269.40829	168.85849	56.88068	
81	0.800	268.26413	172.62817	192.57188	269.40848	168.85767	56.88101	
82	0.810	268.26379	172.62831	192.57230	269.40836	168.85683	56.88105	
83	0.820	268.26331	172.62738	192.57219	269.40793	168.85622	56.88070	
84	0.830	268.26273	172.62585	192.57216	269.40720	168.85591	56.87995	
85	0.840	268.26227	172.62447	192.57280	269.40628	168.85588	56.87899	
86	0.850	268.26205	172.62372	192.57416	269.40543	168.85606	56.87807	
87	0.860	268.26205	172.62370	192.57576	269.40475	168.85640	56.87742	
88	0.870	268.26208	172.62415	192.57706	269.40436	168.85683	56.87713	
89	0.880	268.26208	172.62476	192.57784	269.40421	168.85733	56.87726	
90	0.890	268.26199	172.62540	192.57831	269.40433	168.85786	56.87782	
91	0.900	268.26181	172.62614	192.57881	269.40472	168.85838	56.87875	
92	0.910	268.26147	172.62720	192.57951	269.40533	168.85873	56.87993	
93	0.920	268.26093	172.62871	192.58038	269.40613	168.85875	56.88114	
94	0.930	268.26013	172.63062	192.58118	269.40698	168.85837	56.88218	
95	0.940	268.25931	172.63258	192.58162	269.40781	168.85768	56.88300	
96	0.950	268.25864	172.63411	192.58157	269.40860	168.85686	56.88361	
97	0.960	268.25836	172.63498	192.58121	269.40918	168.85602	56.88399	
98	0.970	268.25864	172.63504	192.58070	269.40952	168.85533	56.88401	
99	0.980	268.25940	172.63399	192.58005	269.40948	168.85487	56.88363	
100	0.990	268.26050	172.63152	192.57912	269.40918	168.85466	56.88290	
101	1.000	268.26172	172.62782	192.57777	269.40875	168.85460	56.88200	
